<?xml version="1.0" encoding="UTF-8"?>
<!DOCTYPE svg PUBLIC "-//W3C//DTD SVG 1.1//EN" "http://www.w3.org/Graphics/SVG/1.1/DTD/svg11.dtd">
<svg xmlns="http://www.w3.org/2000/svg" version="1.1" width="237px" height="239px" style="shape-rendering:geometricPrecision; text-rendering:geometricPrecision; image-rendering:optimizeQuality; fill-rule:evenodd; clip-rule:evenodd" xmlns:xlink="http://www.w3.org/1999/xlink">
<g><path style="opacity:0.996" fill="#79cc23" d="M 105.5,-0.5 C 114.5,-0.5 123.5,-0.5 132.5,-0.5C 176.631,6.49549 208.464,30.1622 228,70.5C 229.028,72.8437 229.694,75.1771 230,77.5C 193.728,43.1669 152.228,35.3336 105.5,54C 92.3964,61.4368 79.0631,68.4368 65.5,75C 46.3273,82.5947 27.3273,82.2614 8.5,74C 27.4044,31.5862 59.7377,6.75289 105.5,-0.5 Z"/></g>
<g><path style="opacity:0.98" fill="#83d036" d="M 218.5,79.5 C 217.833,79.5 217.5,79.8333 217.5,80.5C 192.424,67.4855 165.757,62.3188 137.5,65C 126.135,66.0785 114.802,67.0785 103.5,68C 144.407,47.9739 182.74,51.8073 218.5,79.5 Z"/></g>
<g><path style="opacity:0.761" fill="#a7dd6e" d="M 217.5,80.5 C 217.5,79.8333 217.833,79.5 218.5,79.5C 221.533,81.016 224.2,83.016 226.5,85.5C 223.366,84.0991 220.366,82.4325 217.5,80.5 Z"/></g>
<g><path style="opacity:0.247" fill="#cbeca9" d="M 226.5,85.5 C 227.833,86.1667 227.833,86.1667 226.5,85.5 Z"/></g>
<g><path style="opacity:0.247" fill="#cbeca9" d="M 228.5,86.5 C 229.833,87.1667 229.833,87.1667 228.5,86.5 Z"/></g>
<g><path style="opacity:0.131" fill="#c1c4df" d="M 28.5,94.5 C 23.3814,93.8969 18.7147,94.5636 14.5,96.5C 13.596,95.791 13.2627,94.791 13.5,93.5C 18.6946,93.1795 23.6946,93.5128 28.5,94.5 Z"/></g>
<g><path style="opacity:0.114" fill="#c2c6e0" d="M 53.5,94.5 C 58.3477,93.1863 63.3477,93.1863 68.5,94.5C 68.3764,95.1067 68.0431,95.44 67.5,95.5C 63.03,94.5139 58.3633,94.1805 53.5,94.5 Z"/></g>
<g><path style="opacity:0.103" fill="#c5c8e1" d="M 72.5,94.5 C 76.97,93.5139 81.6367,93.1805 86.5,93.5C 86.7373,94.791 86.404,95.791 85.5,96.5C 81.6273,94.5698 77.294,93.9031 72.5,94.5 Z"/></g>
<g><path style="opacity:0.103" fill="#babcdc" d="M 114.5,94.5 C 118.646,93.353 122.98,93.1864 127.5,94C 127.833,94.3333 128.167,94.6667 128.5,95C 127.901,96.6225 127.234,98.1225 126.5,99.5C 126.5,97.8333 126.5,96.1667 126.5,94.5C 122.5,94.5 118.5,94.5 114.5,94.5 Z"/></g>
<g><path style="opacity:0.101" fill="#c8cbe3" d="M 173.5,94.5 C 178.68,93.1853 184.014,93.1853 189.5,94.5C 189.376,95.1067 189.043,95.44 188.5,95.5C 183.695,94.5128 178.695,94.1795 173.5,94.5 Z"/></g>
<g><path style="opacity:0.158" fill="#c0c4df" d="M 222.5,94.5 C 226.97,93.5139 231.637,93.1805 236.5,93.5C 236.5,94.5 236.5,95.5 236.5,96.5C 236.167,96.5 235.833,96.5 235.5,96.5C 231.627,94.5698 227.294,93.9031 222.5,94.5 Z"/></g>
<g><path style="opacity:1" fill="#7f80bc" d="M 145.5,104.5 C 145.508,101.455 145.841,98.4552 146.5,95.5C 142.5,95.5 138.5,95.5 134.5,95.5C 134.737,96.791 134.404,97.791 133.5,98.5C 133.286,96.8561 133.62,95.3561 134.5,94C 138.833,93.3333 143.167,93.3333 147.5,94C 147.957,94.414 148.291,94.914 148.5,95.5C 147.635,98.6619 146.635,101.662 145.5,104.5 Z"/></g>
<g><path style="opacity:1" fill="#363d97" d="M 28.5,94.5 C 31.8301,99.8269 34.6635,105.494 37,111.5C 39.0367,109.294 41.2034,107.294 43.5,105.5C 47.2343,102.769 50.2343,99.4356 52.5,95.5C 52.5,94.8333 52.8333,94.5 53.5,94.5C 58.3633,94.1805 63.03,94.5139 67.5,95.5C 59.1889,104.813 50.8556,114.147 42.5,123.5C 46.5656,132.04 50.2322,140.706 53.5,149.5C 49.2853,151.436 44.6186,152.103 39.5,151.5C 36.7126,145.925 33.8793,140.259 31,134.5C 25.9961,140.67 20.4961,146.337 14.5,151.5C 9.63671,151.819 4.97005,151.486 0.5,150.5C 8.09597,141.401 16.2626,132.734 25,124.5C 25.6667,123.167 25.6667,121.833 25,120.5C 21.2129,112.596 17.7129,104.596 14.5,96.5C 18.7147,94.5636 23.3814,93.8969 28.5,94.5 Z"/></g>
<g><path style="opacity:1" fill="#323b96" d="M 72.5,94.5 C 77.294,93.9031 81.6273,94.5698 85.5,96.5C 85.552,98.9029 85.2186,101.236 84.5,103.5C 82.7202,104.99 82.0535,106.99 82.5,109.5C 82.7678,111.099 82.4345,112.432 81.5,113.5C 80.5489,114.919 80.2155,116.585 80.5,118.5C 90.015,118.827 99.3483,118.494 108.5,117.5C 108.565,114.572 109.232,111.905 110.5,109.5C 112.04,107.162 112.706,104.495 112.5,101.5C 113.924,99.4855 114.59,97.1522 114.5,94.5C 118.5,94.5 122.5,94.5 126.5,94.5C 126.5,96.1667 126.5,97.8333 126.5,99.5C 125.147,106.912 123.48,114.246 121.5,121.5C 119.59,124.452 118.59,127.786 118.5,131.5C 117.482,137.573 116.148,143.573 114.5,149.5C 109.733,150.797 105.066,150.797 100.5,149.5C 100.898,145.239 101.898,141.239 103.5,137.5C 105.04,135.162 105.706,132.495 105.5,129.5C 106.404,128.791 106.737,127.791 106.5,126.5C 96.8333,126.5 87.1667,126.5 77.5,126.5C 77.5,127.5 77.5,128.5 77.5,129.5C 77.634,131.292 77.3007,132.958 76.5,134.5C 74.8372,136.438 74.1706,138.772 74.5,141.5C 74.2766,145.162 73.2766,148.495 71.5,151.5C 67.5,151.5 63.5,151.5 59.5,151.5C 59.5,150.167 59.5,148.833 59.5,147.5C 59.5651,144.572 60.2318,141.905 61.5,139.5C 63.0395,137.162 63.7062,134.495 63.5,131.5C 66.0337,119.032 69.0337,106.699 72.5,94.5 Z"/></g>
<g><path style="opacity:1" fill="#393f98" d="M 145.5,104.5 C 144.774,110.007 143.44,115.341 141.5,120.5C 140.566,121.568 140.232,122.901 140.5,124.5C 139.482,130.573 138.148,136.573 136.5,142.5C 134.446,145.008 133.446,148.008 133.5,151.5C 129.354,152.647 125.02,152.814 120.5,152C 123.947,134.041 128.281,116.208 133.5,98.5C 134.404,97.791 134.737,96.791 134.5,95.5C 138.5,95.5 142.5,95.5 146.5,95.5C 145.841,98.4552 145.508,101.455 145.5,104.5 Z"/></g>
<g><path style="opacity:0.998" fill="#373d98" d="M 173.5,94.5 C 178.695,94.1795 183.695,94.5128 188.5,95.5C 178.187,104.811 167.853,114.145 157.5,123.5C 163.438,132.388 169.105,141.388 174.5,150.5C 169.36,151.488 164.026,151.821 158.5,151.5C 157.662,151.158 157.328,150.492 157.5,149.5C 157.446,147.368 156.446,146.035 154.5,145.5C 149.905,138.64 145.572,131.64 141.5,124.5C 141.733,122.938 142.4,121.605 143.5,120.5C 146.792,117.51 150.126,114.51 153.5,111.5C 155.749,110.92 157.415,109.587 158.5,107.5C 162.931,102.46 167.931,98.1269 173.5,94.5 Z"/></g>
<g><path style="opacity:1" fill="#313995" d="M 222.5,94.5 C 227.294,93.9031 231.627,94.5698 235.5,96.5C 235.102,100.761 234.102,104.761 232.5,108.5C 230.96,110.838 230.294,113.505 230.5,116.5C 230.634,118.292 230.301,119.958 229.5,121.5C 228.883,121.611 228.383,121.944 228,122.5C 227.505,124.473 227.338,126.473 227.5,128.5C 226.376,136.087 222.709,142.087 216.5,146.5C 215.178,146.67 214.011,146.337 213,145.5C 212.59,146.901 212.09,148.234 211.5,149.5C 209.857,149.52 208.524,148.853 207.5,147.5C 206.494,147.938 206.494,148.604 207.5,149.5C 198.19,150.498 188.857,150.832 179.5,150.5C 179.5,149.5 179.5,148.5 179.5,147.5C 179.5,145.833 179.5,144.167 179.5,142.5C 186.5,142.5 193.5,142.5 200.5,142.5C 203.01,142.946 205.01,142.28 206.5,140.5C 209.167,139.833 210.833,138.167 211.5,135.5C 212.629,131.848 213.629,128.182 214.5,124.5C 216.163,122.562 216.829,120.228 216.5,117.5C 218.163,115.562 218.829,113.228 218.5,110.5C 220.04,108.162 220.706,105.495 220.5,102.5C 220.565,99.5718 221.232,96.9052 222.5,94.5 Z"/></g>
<g><path style="opacity:0.678" fill="#7d7fbc" d="M 52.5,95.5 C 50.2343,99.4356 47.2343,102.769 43.5,105.5C 45.7657,101.564 48.7657,98.2311 52.5,95.5 Z"/></g>
<g><path style="opacity:0.643" fill="#767ab9" d="M 114.5,94.5 C 114.59,97.1522 113.924,99.4855 112.5,101.5C 112.41,98.8478 113.076,96.5145 114.5,94.5 Z"/></g>
<g><path style="opacity:0.624" fill="#7f84bd" d="M 112.5,101.5 C 112.706,104.495 112.04,107.162 110.5,109.5C 110.565,106.572 111.232,103.905 112.5,101.5 Z"/></g>
<g><path style="opacity:0.604" fill="#8a8dc3" d="M 84.5,103.5 C 84.1249,105.698 83.4582,107.698 82.5,109.5C 82.0535,106.99 82.7202,104.99 84.5,103.5 Z"/></g>
<g><path style="opacity:0.671" fill="#6f74b5" d="M 220.5,102.5 C 220.706,105.495 220.04,108.162 218.5,110.5C 218.565,107.572 219.232,104.905 220.5,102.5 Z"/></g>
<g><path style="opacity:0.616" fill="#8588c1" d="M 158.5,107.5 C 157.415,109.587 155.749,110.92 153.5,111.5C 154.585,109.413 156.251,108.08 158.5,107.5 Z"/></g>
<g><path style="opacity:0.063" fill="#a1a6cf" d="M 232.5,108.5 C 232.435,111.428 231.768,114.095 230.5,116.5C 230.294,113.505 230.96,110.838 232.5,108.5 Z"/></g>
<g><path style="opacity:0.459" fill="#868ac1" d="M 218.5,110.5 C 218.829,113.228 218.163,115.562 216.5,117.5C 216.41,114.848 217.076,112.515 218.5,110.5 Z"/></g>
<g><path style="opacity:0.11" fill="#c3c6e0" d="M 81.5,113.5 C 81.5,114.833 81.5,116.167 81.5,117.5C 90.5,117.5 99.5,117.5 108.5,117.5C 99.3483,118.494 90.015,118.827 80.5,118.5C 80.2155,116.585 80.5489,114.919 81.5,113.5 Z"/></g>
<g><path style="opacity:1" fill="#7e84be" d="M 141.5,120.5 C 142.167,120.5 142.833,120.5 143.5,120.5C 142.4,121.605 141.733,122.938 141.5,124.5C 141.167,124.5 140.833,124.5 140.5,124.5C 140.232,122.901 140.566,121.568 141.5,120.5 Z"/></g>
<g><path style="opacity:0.671" fill="#9194c7" d="M 216.5,117.5 C 216.829,120.228 216.163,122.562 214.5,124.5C 214.721,121.933 215.388,119.599 216.5,117.5 Z"/></g>
<g><path style="opacity:0.741" fill="#7d7fbb" d="M 229.5,121.5 C 229.279,124.067 228.612,126.401 227.5,128.5C 227.338,126.473 227.505,124.473 228,122.5C 228.383,121.944 228.883,121.611 229.5,121.5 Z"/></g>
<g><path style="opacity:0.467" fill="#9a9ecc" d="M 121.5,121.5 C 121.101,125.116 120.101,128.45 118.5,131.5C 118.59,127.786 119.59,124.452 121.5,121.5 Z"/></g>
<g><path style="opacity:0.624" fill="#6d71b3" d="M 105.5,129.5 C 100.599,127.948 95.4324,127.281 90,127.5C 85.5787,127.569 81.412,128.235 77.5,129.5C 77.5,128.5 77.5,127.5 77.5,126.5C 87.1667,126.5 96.8333,126.5 106.5,126.5C 106.737,127.791 106.404,128.791 105.5,129.5 Z"/></g>
<g><path style="opacity:0.596" fill="#8185bd" d="M 105.5,129.5 C 105.706,132.495 105.04,135.162 103.5,137.5C 103.565,134.572 104.232,131.905 105.5,129.5 Z"/></g>
<g><path style="opacity:0.698" fill="#8286bf" d="M 63.5,131.5 C 63.7062,134.495 63.0395,137.162 61.5,139.5C 61.5651,136.572 62.2318,133.905 63.5,131.5 Z"/></g>
<g><path style="opacity:0.706" fill="#7f82bd" d="M 211.5,135.5 C 210.833,138.167 209.167,139.833 206.5,140.5C 207.833,138.5 209.5,136.833 211.5,135.5 Z"/></g>
<g><path style="opacity:0.596" fill="#8489c1" d="M 76.5,134.5 C 76.2785,137.067 75.6118,139.401 74.5,141.5C 74.1706,138.772 74.8372,136.438 76.5,134.5 Z"/></g>
<g><path style="opacity:0.761" fill="#787bb9" d="M 206.5,140.5 C 205.01,142.28 203.01,142.946 200.5,142.5C 202.302,141.542 204.302,140.875 206.5,140.5 Z"/></g>
<g><path style="opacity:0.588" fill="#888bc2" d="M 136.5,142.5 C 135.946,145.746 134.946,148.746 133.5,151.5C 133.446,148.008 134.446,145.008 136.5,142.5 Z"/></g>
<g><path style="opacity:0.686" fill="#9192c6" d="M 154.5,145.5 C 156.446,146.035 157.446,147.368 157.5,149.5C 156.026,148.564 155.026,147.23 154.5,145.5 Z"/></g>
<g><path style="opacity:1" fill="#6d6fb0" d="M 216.5,146.5 C 215.101,147.89 213.434,148.89 211.5,149.5C 212.09,148.234 212.59,146.901 213,145.5C 214.011,146.337 215.178,146.67 216.5,146.5 Z"/></g>
<g><path style="opacity:0.976" fill="#8080bd" d="M 100.5,149.5 C 105.066,150.797 109.733,150.797 114.5,149.5C 114.586,150.496 114.252,151.329 113.5,152C 109.167,152.667 104.833,152.667 100.5,152C 99.2264,151.023 99.2264,150.189 100.5,149.5 Z"/></g>
<g><path style="opacity:0.988" fill="#7273b5" d="M 179.5,147.5 C 179.5,148.5 179.5,149.5 179.5,150.5C 188.857,150.832 198.19,150.498 207.5,149.5C 206.494,148.604 206.494,147.938 207.5,147.5C 208.524,148.853 209.857,149.52 211.5,149.5C 208.797,150.963 205.797,151.796 202.5,152C 194.507,152.5 186.507,152.666 178.5,152.5C 178.216,150.585 178.549,148.919 179.5,147.5 Z"/></g>
<g><path style="opacity:0.082" fill="#cacce4" d="M -0.5,150.5 C -0.166667,150.5 0.166667,150.5 0.5,150.5C 4.97005,151.486 9.63671,151.819 14.5,151.5C 9.69463,152.487 4.69463,152.821 -0.5,152.5C -0.5,151.833 -0.5,151.167 -0.5,150.5 Z"/></g>
<g><path style="opacity:0.082" fill="#c7c9e2" d="M 53.5,149.5 C 54.404,150.209 54.7373,151.209 54.5,152.5C 49.3054,152.821 44.3054,152.487 39.5,151.5C 44.6186,152.103 49.2853,151.436 53.5,149.5 Z"/></g>
<g><path style="opacity:0.085" fill="#bbbddb" d="M 59.5,147.5 C 59.5,148.833 59.5,150.167 59.5,151.5C 63.5,151.5 67.5,151.5 71.5,151.5C 67.3656,152.485 63.0323,152.818 58.5,152.5C 58.2155,150.585 58.5489,148.919 59.5,147.5 Z"/></g>
<g><path style="opacity:0.082" fill="#cdcfe5" d="M 174.5,150.5 C 175.043,150.56 175.376,150.893 175.5,151.5C 169.68,152.816 164.013,152.816 158.5,151.5C 164.026,151.821 169.36,151.488 174.5,150.5 Z"/></g>
<g><path style="opacity:0.753" fill="#7f7fbc" d="M 12.5,160.5 C 10.9519,160.821 10.2852,161.821 10.5,163.5C 8.76154,161.881 8.26154,159.881 9,157.5C 10.5185,158.163 11.6851,159.163 12.5,160.5 Z"/></g>
<g><path style="opacity:0.753" fill="#8e8ec4" d="M 13.5,160.5 C 14.7095,160.932 15.7095,161.599 16.5,162.5C 14.8212,162.715 13.8212,162.048 13.5,160.5 Z"/></g>
<g><path style="opacity:0.999" fill="#2e3894" d="M 12.5,160.5 C 12.8333,160.5 13.1667,160.5 13.5,160.5C 13.8212,162.048 14.8212,162.715 16.5,162.5C 36.5416,173.551 58.0416,178.551 81,177.5C 90.1746,177.278 99.3412,176.944 108.5,176.5C 113.453,176.877 118.119,176.211 122.5,174.5C 140.888,171.968 159.221,171.968 177.5,174.5C 178.791,175.473 178.791,176.473 177.5,177.5C 178.167,177.833 178.833,178.167 179.5,178.5C 182.13,177.622 184.797,176.955 187.5,176.5C 188.167,176.5 188.833,176.5 189.5,176.5C 190.99,178.28 192.99,178.946 195.5,178.5C 203.032,180.007 210.032,182.674 216.5,186.5C 217.234,187.708 217.567,189.041 217.5,190.5C 205.198,206.749 189.698,219.082 171,227.5C 163.718,222.609 155.885,218.942 147.5,216.5C 146.01,214.72 144.01,214.054 141.5,214.5C 139.901,214.768 138.568,214.434 137.5,213.5C 133.796,211.909 129.796,211.076 125.5,211C 118.174,210.5 110.841,210.334 103.5,210.5C 100.167,210.5 96.8333,210.5 93.5,210.5C 87.1507,208.236 80.484,207.236 73.5,207.5C 71.1617,205.96 68.4951,205.294 65.5,205.5C 63.4855,204.076 61.1522,203.41 58.5,203.5C 50.8619,201.844 43.8619,198.844 37.5,194.5C 37.0269,193.094 36.0269,192.427 34.5,192.5C 31.1092,191.471 28.4426,189.471 26.5,186.5C 26.0269,185.094 25.0269,184.427 23.5,184.5C 18.3549,180.218 14.6882,174.885 12.5,168.5C 12.4142,167.504 12.7476,166.671 13.5,166C 12.3094,165.302 11.3094,164.469 10.5,163.5C 10.2852,161.821 10.9519,160.821 12.5,160.5 Z"/></g>
<g><path style="opacity:1" fill="#7f7cbb" d="M 10.5,163.5 C 11.3094,164.469 12.3094,165.302 13.5,166C 12.7476,166.671 12.4142,167.504 12.5,168.5C 11.0687,167.22 10.4021,165.553 10.5,163.5 Z"/></g>
<g><path style="opacity:0.808" fill="#5c60ab" d="M 122.5,174.5 C 118.119,176.211 113.453,176.877 108.5,176.5C 112.98,175.479 117.647,174.813 122.5,174.5 Z"/></g>
<g><path style="opacity:0.985" fill="#5155a5" d="M 177.5,174.5 C 181.122,174.322 184.456,174.989 187.5,176.5C 184.797,176.955 182.13,177.622 179.5,178.5C 178.833,178.167 178.167,177.833 177.5,177.5C 178.791,176.473 178.791,175.473 177.5,174.5 Z"/></g>
<g><path style="opacity:0.904" fill="#7072b4" d="M 189.5,176.5 C 191.786,176.595 193.786,177.262 195.5,178.5C 192.99,178.946 190.99,178.28 189.5,176.5 Z"/></g>
<g><path style="opacity:0.494" fill="#9599c8" d="M 23.5,184.5 C 25.0269,184.427 26.0269,185.094 26.5,186.5C 24.9731,186.573 23.9731,185.906 23.5,184.5 Z"/></g>
<g><path style="opacity:0.78" fill="#7e80bc" d="M 216.5,186.5 C 219.884,187.244 220.218,188.577 217.5,190.5C 217.567,189.041 217.234,187.708 216.5,186.5 Z"/></g>
<g><path style="opacity:0.239" fill="#a6aad2" d="M 34.5,192.5 C 36.0269,192.427 37.0269,193.094 37.5,194.5C 35.9731,194.573 34.9731,193.906 34.5,192.5 Z"/></g>
<g><path style="opacity:0.459" fill="#9293c6" d="M 46.5,207.5 C 45.1667,207.5 44.5,208.167 44.5,209.5C 41.4214,207.533 38.5881,205.2 36,202.5C 35.3333,201.833 35.3333,201.167 36,200.5C 39.6515,202.733 43.1515,205.066 46.5,207.5 Z"/></g>
<g><path style="opacity:0.651" fill="#7b81bc" d="M 58.5,203.5 C 61.1522,203.41 63.4855,204.076 65.5,205.5C 62.8478,205.59 60.5145,204.924 58.5,203.5 Z"/></g>
<g><path style="opacity:0.555" fill="#7d83bc" d="M 65.5,205.5 C 68.4951,205.294 71.1617,205.96 73.5,207.5C 70.5718,207.435 67.9052,206.768 65.5,205.5 Z"/></g>
<g><path style="opacity:1" fill="#797cba" d="M 73.5,207.5 C 80.484,207.236 87.1507,208.236 93.5,210.5C 86.5929,210.229 79.9263,209.229 73.5,207.5 Z"/></g>
<g><path style="opacity:0.569" fill="#868bc0" d="M 103.5,210.5 C 110.841,210.334 118.174,210.5 125.5,211C 129.796,211.076 133.796,211.909 137.5,213.5C 126.043,212.246 114.71,211.246 103.5,210.5 Z"/></g>
<g><path style="opacity:0.997" fill="#3e429b" d="M 46.5,207.5 C 55.3592,212.174 64.6926,215.674 74.5,218C 89.7673,219.942 105.101,221.276 120.5,222C 132.336,223.279 143.336,226.945 153.5,233C 153.167,233.333 152.833,233.667 152.5,234C 143.175,236.486 133.842,237.986 124.5,238.5C 123.167,238.5 121.833,238.5 120.5,238.5C 112.903,237.737 105.236,236.737 97.5,235.5C 94.4954,233.723 91.1621,232.723 87.5,232.5C 71.2457,228.209 56.9124,220.543 44.5,209.5C 44.5,208.167 45.1667,207.5 46.5,207.5 Z"/></g>
<g><path style="opacity:0.686" fill="#7c80bc" d="M 141.5,214.5 C 144.01,214.054 146.01,214.72 147.5,216.5C 145.302,216.125 143.302,215.458 141.5,214.5 Z"/></g>
<g><path style="opacity:0.549" fill="#9da1c9" d="M 87.5,232.5 C 91.1621,232.723 94.4954,233.723 97.5,235.5C 93.8379,235.277 90.5046,234.277 87.5,232.5 Z"/></g>
</svg>
